%FSLAX45Y45*%
G04 Gerber Fmt 4.5, Leading zero omitted, Abs format (unit mm)*
G04 Created by KiCad (PCBNEW 5.1.10) date 2021-08-03 19:26:35*
%MOMM*%
%LPD*%
G01*
G04 APERTURE LIST*
%TA.AperFunction,Profile*%
%ADD10C,0.050000*%
%TD*%
%ADD11C,0.200000*%
%ADD12C,0.300000*%
G04 APERTURE END LIST*
D10*
X5150000Y-3650000D02*
X5150000Y-2400000D01*
X6300000Y-3650000D02*
X5150000Y-3650000D01*
X6300000Y-3600000D02*
X6300000Y-3650000D01*
X6300000Y-2400000D02*
X6300000Y-3600000D01*
X5150000Y-2400000D02*
X6300000Y-2400000D01*
D11*
X5314500Y-2618500D02*
X5394500Y-2698500D01*
X5394500Y-2618500D02*
X5314500Y-2698500D01*
X5314500Y-2872500D02*
X5394500Y-2952500D01*
X5394500Y-2872500D02*
X5314500Y-2952500D01*
X5314500Y-3126500D02*
X5394500Y-3206500D01*
X5394500Y-3126500D02*
X5314500Y-3206500D01*
X5314500Y-3380500D02*
X5394500Y-3460500D01*
X5394500Y-3380500D02*
X5314500Y-3460500D01*
X6076500Y-2618500D02*
X6156500Y-2698500D01*
X6156500Y-2618500D02*
X6076500Y-2698500D01*
X6076500Y-2872500D02*
X6156500Y-2952500D01*
X6156500Y-2872500D02*
X6076500Y-2952500D01*
X6076500Y-3126500D02*
X6156500Y-3206500D01*
X6156500Y-3126500D02*
X6076500Y-3206500D01*
X6076500Y-3380500D02*
X6156500Y-3460500D01*
X6156500Y-3380500D02*
X6076500Y-3460500D01*
D12*
X5433928Y-4118214D02*
X5433928Y-3818214D01*
X5505357Y-3818214D01*
X5548214Y-3832500D01*
X5576786Y-3861071D01*
X5591071Y-3889643D01*
X5605357Y-3946786D01*
X5605357Y-3989643D01*
X5591071Y-4046786D01*
X5576786Y-4075357D01*
X5548214Y-4103929D01*
X5505357Y-4118214D01*
X5433928Y-4118214D01*
X5733928Y-4118214D02*
X5733928Y-3918214D01*
X5733928Y-3975357D02*
X5748214Y-3946786D01*
X5762500Y-3932500D01*
X5791071Y-3918214D01*
X5819643Y-3918214D01*
X5919643Y-4118214D02*
X5919643Y-3918214D01*
X5919643Y-3818214D02*
X5905357Y-3832500D01*
X5919643Y-3846786D01*
X5933928Y-3832500D01*
X5919643Y-3818214D01*
X5919643Y-3846786D01*
X6105357Y-4118214D02*
X6076786Y-4103929D01*
X6062500Y-4075357D01*
X6062500Y-3818214D01*
X6262500Y-4118214D02*
X6233928Y-4103929D01*
X6219643Y-4075357D01*
X6219643Y-3818214D01*
X6605357Y-4118214D02*
X6605357Y-3818214D01*
X6705357Y-4032500D01*
X6805357Y-3818214D01*
X6805357Y-4118214D01*
X7076786Y-4118214D02*
X7076786Y-3961071D01*
X7062500Y-3932500D01*
X7033928Y-3918214D01*
X6976786Y-3918214D01*
X6948214Y-3932500D01*
X7076786Y-4103929D02*
X7048214Y-4118214D01*
X6976786Y-4118214D01*
X6948214Y-4103929D01*
X6933928Y-4075357D01*
X6933928Y-4046786D01*
X6948214Y-4018214D01*
X6976786Y-4003929D01*
X7048214Y-4003929D01*
X7076786Y-3989643D01*
X7219643Y-3918214D02*
X7219643Y-4218214D01*
X7219643Y-3932500D02*
X7248214Y-3918214D01*
X7305357Y-3918214D01*
X7333928Y-3932500D01*
X7348214Y-3946786D01*
X7362500Y-3975357D01*
X7362500Y-4061071D01*
X7348214Y-4089643D01*
X7333928Y-4103929D01*
X7305357Y-4118214D01*
X7248214Y-4118214D01*
X7219643Y-4103929D01*
X7491071Y-4089643D02*
X7505357Y-4103929D01*
X7491071Y-4118214D01*
X7476786Y-4103929D01*
X7491071Y-4089643D01*
X7491071Y-4118214D01*
X7491071Y-3932500D02*
X7505357Y-3946786D01*
X7491071Y-3961071D01*
X7476786Y-3946786D01*
X7491071Y-3932500D01*
X7491071Y-3961071D01*
X5067500Y-4572500D02*
X5147500Y-4652500D01*
X5147500Y-4572500D02*
X5067500Y-4652500D01*
X5491071Y-4448214D02*
X5519643Y-4448214D01*
X5548214Y-4462500D01*
X5562500Y-4476786D01*
X5576786Y-4505357D01*
X5591071Y-4562500D01*
X5591071Y-4633929D01*
X5576786Y-4691072D01*
X5562500Y-4719643D01*
X5548214Y-4733929D01*
X5519643Y-4748214D01*
X5491071Y-4748214D01*
X5462500Y-4733929D01*
X5448214Y-4719643D01*
X5433928Y-4691072D01*
X5419643Y-4633929D01*
X5419643Y-4562500D01*
X5433928Y-4505357D01*
X5448214Y-4476786D01*
X5462500Y-4462500D01*
X5491071Y-4448214D01*
X5719643Y-4719643D02*
X5733928Y-4733929D01*
X5719643Y-4748214D01*
X5705357Y-4733929D01*
X5719643Y-4719643D01*
X5719643Y-4748214D01*
X5905357Y-4576786D02*
X5876786Y-4562500D01*
X5862500Y-4548214D01*
X5848214Y-4519643D01*
X5848214Y-4505357D01*
X5862500Y-4476786D01*
X5876786Y-4462500D01*
X5905357Y-4448214D01*
X5962500Y-4448214D01*
X5991071Y-4462500D01*
X6005357Y-4476786D01*
X6019643Y-4505357D01*
X6019643Y-4519643D01*
X6005357Y-4548214D01*
X5991071Y-4562500D01*
X5962500Y-4576786D01*
X5905357Y-4576786D01*
X5876786Y-4591072D01*
X5862500Y-4605357D01*
X5848214Y-4633929D01*
X5848214Y-4691072D01*
X5862500Y-4719643D01*
X5876786Y-4733929D01*
X5905357Y-4748214D01*
X5962500Y-4748214D01*
X5991071Y-4733929D01*
X6005357Y-4719643D01*
X6019643Y-4691072D01*
X6019643Y-4633929D01*
X6005357Y-4605357D01*
X5991071Y-4591072D01*
X5962500Y-4576786D01*
X6205357Y-4448214D02*
X6233928Y-4448214D01*
X6262500Y-4462500D01*
X6276786Y-4476786D01*
X6291071Y-4505357D01*
X6305357Y-4562500D01*
X6305357Y-4633929D01*
X6291071Y-4691072D01*
X6276786Y-4719643D01*
X6262500Y-4733929D01*
X6233928Y-4748214D01*
X6205357Y-4748214D01*
X6176786Y-4733929D01*
X6162500Y-4719643D01*
X6148214Y-4691072D01*
X6133928Y-4633929D01*
X6133928Y-4562500D01*
X6148214Y-4505357D01*
X6162500Y-4476786D01*
X6176786Y-4462500D01*
X6205357Y-4448214D01*
X6491071Y-4448214D02*
X6519643Y-4448214D01*
X6548214Y-4462500D01*
X6562500Y-4476786D01*
X6576786Y-4505357D01*
X6591071Y-4562500D01*
X6591071Y-4633929D01*
X6576786Y-4691072D01*
X6562500Y-4719643D01*
X6548214Y-4733929D01*
X6519643Y-4748214D01*
X6491071Y-4748214D01*
X6462500Y-4733929D01*
X6448214Y-4719643D01*
X6433928Y-4691072D01*
X6419643Y-4633929D01*
X6419643Y-4562500D01*
X6433928Y-4505357D01*
X6448214Y-4476786D01*
X6462500Y-4462500D01*
X6491071Y-4448214D01*
X6719643Y-4748214D02*
X6719643Y-4548214D01*
X6719643Y-4576786D02*
X6733928Y-4562500D01*
X6762500Y-4548214D01*
X6805357Y-4548214D01*
X6833928Y-4562500D01*
X6848214Y-4591072D01*
X6848214Y-4748214D01*
X6848214Y-4591072D02*
X6862500Y-4562500D01*
X6891071Y-4548214D01*
X6933928Y-4548214D01*
X6962500Y-4562500D01*
X6976786Y-4591072D01*
X6976786Y-4748214D01*
X7119643Y-4748214D02*
X7119643Y-4548214D01*
X7119643Y-4576786D02*
X7133928Y-4562500D01*
X7162500Y-4548214D01*
X7205357Y-4548214D01*
X7233928Y-4562500D01*
X7248214Y-4591072D01*
X7248214Y-4748214D01*
X7248214Y-4591072D02*
X7262500Y-4562500D01*
X7291071Y-4548214D01*
X7333928Y-4548214D01*
X7362500Y-4562500D01*
X7376786Y-4591072D01*
X7376786Y-4748214D01*
X7962500Y-4433929D02*
X7705357Y-4819643D01*
X8348214Y-4448214D02*
X8376786Y-4448214D01*
X8405357Y-4462500D01*
X8419643Y-4476786D01*
X8433928Y-4505357D01*
X8448214Y-4562500D01*
X8448214Y-4633929D01*
X8433928Y-4691072D01*
X8419643Y-4719643D01*
X8405357Y-4733929D01*
X8376786Y-4748214D01*
X8348214Y-4748214D01*
X8319643Y-4733929D01*
X8305357Y-4719643D01*
X8291071Y-4691072D01*
X8276786Y-4633929D01*
X8276786Y-4562500D01*
X8291071Y-4505357D01*
X8305357Y-4476786D01*
X8319643Y-4462500D01*
X8348214Y-4448214D01*
X8576786Y-4719643D02*
X8591071Y-4733929D01*
X8576786Y-4748214D01*
X8562500Y-4733929D01*
X8576786Y-4719643D01*
X8576786Y-4748214D01*
X8776786Y-4448214D02*
X8805357Y-4448214D01*
X8833928Y-4462500D01*
X8848214Y-4476786D01*
X8862500Y-4505357D01*
X8876786Y-4562500D01*
X8876786Y-4633929D01*
X8862500Y-4691072D01*
X8848214Y-4719643D01*
X8833928Y-4733929D01*
X8805357Y-4748214D01*
X8776786Y-4748214D01*
X8748214Y-4733929D01*
X8733928Y-4719643D01*
X8719643Y-4691072D01*
X8705357Y-4633929D01*
X8705357Y-4562500D01*
X8719643Y-4505357D01*
X8733928Y-4476786D01*
X8748214Y-4462500D01*
X8776786Y-4448214D01*
X8976786Y-4448214D02*
X9162500Y-4448214D01*
X9062500Y-4562500D01*
X9105357Y-4562500D01*
X9133928Y-4576786D01*
X9148214Y-4591072D01*
X9162500Y-4619643D01*
X9162500Y-4691072D01*
X9148214Y-4719643D01*
X9133928Y-4733929D01*
X9105357Y-4748214D01*
X9019643Y-4748214D01*
X8991071Y-4733929D01*
X8976786Y-4719643D01*
X9448214Y-4748214D02*
X9276786Y-4748214D01*
X9362500Y-4748214D02*
X9362500Y-4448214D01*
X9333928Y-4491072D01*
X9305357Y-4519643D01*
X9276786Y-4533929D01*
X9719643Y-4448214D02*
X9576786Y-4448214D01*
X9562500Y-4591072D01*
X9576786Y-4576786D01*
X9605357Y-4562500D01*
X9676786Y-4562500D01*
X9705357Y-4576786D01*
X9719643Y-4591072D01*
X9733928Y-4619643D01*
X9733928Y-4691072D01*
X9719643Y-4719643D01*
X9705357Y-4733929D01*
X9676786Y-4748214D01*
X9605357Y-4748214D01*
X9576786Y-4733929D01*
X9562500Y-4719643D01*
X9848214Y-4448214D02*
X9848214Y-4505357D01*
X9962500Y-4448214D02*
X9962500Y-4505357D01*
X10405357Y-4862500D02*
X10391071Y-4848214D01*
X10362500Y-4805357D01*
X10348214Y-4776786D01*
X10333928Y-4733929D01*
X10319643Y-4662500D01*
X10319643Y-4605357D01*
X10333928Y-4533929D01*
X10348214Y-4491072D01*
X10362500Y-4462500D01*
X10391071Y-4419643D01*
X10405357Y-4405357D01*
X10562500Y-4576786D02*
X10533928Y-4562500D01*
X10519643Y-4548214D01*
X10505357Y-4519643D01*
X10505357Y-4505357D01*
X10519643Y-4476786D01*
X10533928Y-4462500D01*
X10562500Y-4448214D01*
X10619643Y-4448214D01*
X10648214Y-4462500D01*
X10662500Y-4476786D01*
X10676786Y-4505357D01*
X10676786Y-4519643D01*
X10662500Y-4548214D01*
X10648214Y-4562500D01*
X10619643Y-4576786D01*
X10562500Y-4576786D01*
X10533928Y-4591072D01*
X10519643Y-4605357D01*
X10505357Y-4633929D01*
X10505357Y-4691072D01*
X10519643Y-4719643D01*
X10533928Y-4733929D01*
X10562500Y-4748214D01*
X10619643Y-4748214D01*
X10648214Y-4733929D01*
X10662500Y-4719643D01*
X10676786Y-4691072D01*
X10676786Y-4633929D01*
X10662500Y-4605357D01*
X10648214Y-4591072D01*
X10619643Y-4576786D01*
X11033928Y-4748214D02*
X11033928Y-4448214D01*
X11162500Y-4748214D02*
X11162500Y-4591072D01*
X11148214Y-4562500D01*
X11119643Y-4548214D01*
X11076786Y-4548214D01*
X11048214Y-4562500D01*
X11033928Y-4576786D01*
X11348214Y-4748214D02*
X11319643Y-4733929D01*
X11305357Y-4719643D01*
X11291071Y-4691072D01*
X11291071Y-4605357D01*
X11305357Y-4576786D01*
X11319643Y-4562500D01*
X11348214Y-4548214D01*
X11391071Y-4548214D01*
X11419643Y-4562500D01*
X11433928Y-4576786D01*
X11448214Y-4605357D01*
X11448214Y-4691072D01*
X11433928Y-4719643D01*
X11419643Y-4733929D01*
X11391071Y-4748214D01*
X11348214Y-4748214D01*
X11619643Y-4748214D02*
X11591071Y-4733929D01*
X11576786Y-4705357D01*
X11576786Y-4448214D01*
X11848214Y-4733929D02*
X11819643Y-4748214D01*
X11762500Y-4748214D01*
X11733928Y-4733929D01*
X11719643Y-4705357D01*
X11719643Y-4591072D01*
X11733928Y-4562500D01*
X11762500Y-4548214D01*
X11819643Y-4548214D01*
X11848214Y-4562500D01*
X11862500Y-4591072D01*
X11862500Y-4619643D01*
X11719643Y-4648214D01*
X11976786Y-4733929D02*
X12005357Y-4748214D01*
X12062500Y-4748214D01*
X12091071Y-4733929D01*
X12105357Y-4705357D01*
X12105357Y-4691072D01*
X12091071Y-4662500D01*
X12062500Y-4648214D01*
X12019643Y-4648214D01*
X11991071Y-4633929D01*
X11976786Y-4605357D01*
X11976786Y-4591072D01*
X11991071Y-4562500D01*
X12019643Y-4548214D01*
X12062500Y-4548214D01*
X12091071Y-4562500D01*
X12205357Y-4862500D02*
X12219643Y-4848214D01*
X12248214Y-4805357D01*
X12262500Y-4776786D01*
X12276786Y-4733929D01*
X12291071Y-4662500D01*
X12291071Y-4605357D01*
X12276786Y-4533929D01*
X12262500Y-4491072D01*
X12248214Y-4462500D01*
X12219643Y-4419643D01*
X12205357Y-4405357D01*
M02*
