%TF.GenerationSoftware,KiCad,Pcbnew,5.1.10*%
%TF.CreationDate,2021-08-03T18:50:16+02:00*%
%TF.ProjectId,smd-converter,736d642d-636f-46e7-9665-727465722e6b,rev?*%
%TF.SameCoordinates,Original*%
%TF.FileFunction,Copper,L2,Bot*%
%TF.FilePolarity,Positive*%
%FSLAX46Y46*%
G04 Gerber Fmt 4.6, Leading zero omitted, Abs format (unit mm)*
G04 Created by KiCad (PCBNEW 5.1.10) date 2021-08-03 18:50:16*
%MOMM*%
%LPD*%
G01*
G04 APERTURE LIST*
%TA.AperFunction,ComponentPad*%
%ADD10R,1.600000X1.600000*%
%TD*%
%TA.AperFunction,ComponentPad*%
%ADD11O,1.600000X1.600000*%
%TD*%
%TA.AperFunction,NonConductor*%
%ADD12C,0.254000*%
%TD*%
%TA.AperFunction,NonConductor*%
%ADD13C,0.100000*%
%TD*%
G04 APERTURE END LIST*
D10*
%TO.P,J1,1*%
%TO.N,Net-(J1-Pad1)*%
X53545000Y-26585000D03*
D11*
%TO.P,J1,5*%
%TO.N,Net-(J1-Pad5)*%
X61165000Y-34205000D03*
%TO.P,J1,2*%
%TO.N,Net-(J1-Pad2)*%
X53545000Y-29125000D03*
%TO.P,J1,6*%
%TO.N,Net-(J1-Pad6)*%
X61165000Y-31665000D03*
%TO.P,J1,3*%
%TO.N,Net-(J1-Pad3)*%
X53545000Y-31665000D03*
%TO.P,J1,7*%
%TO.N,Net-(J1-Pad7)*%
X61165000Y-29125000D03*
%TO.P,J1,4*%
%TO.N,Net-(J1-Pad4)*%
X53545000Y-34205000D03*
%TO.P,J1,8*%
%TO.N,Net-(J1-Pad8)*%
X61165000Y-26585000D03*
%TD*%
D12*
X62340000Y-25760581D02*
X62279637Y-25670241D01*
X62079759Y-25470363D01*
X61844727Y-25313320D01*
X61583574Y-25205147D01*
X61306335Y-25150000D01*
X61023665Y-25150000D01*
X60746426Y-25205147D01*
X60485273Y-25313320D01*
X60250241Y-25470363D01*
X60050363Y-25670241D01*
X59893320Y-25905273D01*
X59785147Y-26166426D01*
X59730000Y-26443665D01*
X59730000Y-26726335D01*
X59785147Y-27003574D01*
X59893320Y-27264727D01*
X60050363Y-27499759D01*
X60250241Y-27699637D01*
X60482759Y-27855000D01*
X60250241Y-28010363D01*
X60050363Y-28210241D01*
X59893320Y-28445273D01*
X59785147Y-28706426D01*
X59730000Y-28983665D01*
X59730000Y-29266335D01*
X59785147Y-29543574D01*
X59893320Y-29804727D01*
X60050363Y-30039759D01*
X60250241Y-30239637D01*
X60482759Y-30395000D01*
X60250241Y-30550363D01*
X60050363Y-30750241D01*
X59893320Y-30985273D01*
X59785147Y-31246426D01*
X59730000Y-31523665D01*
X59730000Y-31806335D01*
X59785147Y-32083574D01*
X59893320Y-32344727D01*
X60050363Y-32579759D01*
X60250241Y-32779637D01*
X60482759Y-32935000D01*
X60250241Y-33090363D01*
X60050363Y-33290241D01*
X59893320Y-33525273D01*
X59785147Y-33786426D01*
X59730000Y-34063665D01*
X59730000Y-34346335D01*
X59785147Y-34623574D01*
X59893320Y-34884727D01*
X60050363Y-35119759D01*
X60250241Y-35319637D01*
X60485273Y-35476680D01*
X60746426Y-35584853D01*
X61023665Y-35640000D01*
X61306335Y-35640000D01*
X61583574Y-35584853D01*
X61844727Y-35476680D01*
X62079759Y-35319637D01*
X62279637Y-35119759D01*
X62340001Y-35029418D01*
X62340001Y-35840000D01*
X52160000Y-35840000D01*
X52160000Y-34597699D01*
X52165147Y-34623574D01*
X52273320Y-34884727D01*
X52430363Y-35119759D01*
X52630241Y-35319637D01*
X52865273Y-35476680D01*
X53126426Y-35584853D01*
X53403665Y-35640000D01*
X53686335Y-35640000D01*
X53963574Y-35584853D01*
X54224727Y-35476680D01*
X54459759Y-35319637D01*
X54659637Y-35119759D01*
X54816680Y-34884727D01*
X54924853Y-34623574D01*
X54980000Y-34346335D01*
X54980000Y-34063665D01*
X54924853Y-33786426D01*
X54816680Y-33525273D01*
X54659637Y-33290241D01*
X54459759Y-33090363D01*
X54227241Y-32935000D01*
X54459759Y-32779637D01*
X54659637Y-32579759D01*
X54816680Y-32344727D01*
X54924853Y-32083574D01*
X54980000Y-31806335D01*
X54980000Y-31523665D01*
X54924853Y-31246426D01*
X54816680Y-30985273D01*
X54659637Y-30750241D01*
X54459759Y-30550363D01*
X54227241Y-30395000D01*
X54459759Y-30239637D01*
X54659637Y-30039759D01*
X54816680Y-29804727D01*
X54924853Y-29543574D01*
X54980000Y-29266335D01*
X54980000Y-28983665D01*
X54924853Y-28706426D01*
X54816680Y-28445273D01*
X54659637Y-28210241D01*
X54461039Y-28011643D01*
X54469482Y-28010812D01*
X54589180Y-27974502D01*
X54699494Y-27915537D01*
X54796185Y-27836185D01*
X54875537Y-27739494D01*
X54934502Y-27629180D01*
X54970812Y-27509482D01*
X54983072Y-27385000D01*
X54983072Y-25785000D01*
X54970812Y-25660518D01*
X54934502Y-25540820D01*
X54875537Y-25430506D01*
X54796185Y-25333815D01*
X54699494Y-25254463D01*
X54589180Y-25195498D01*
X54469482Y-25159188D01*
X54345000Y-25146928D01*
X52745000Y-25146928D01*
X52620518Y-25159188D01*
X52500820Y-25195498D01*
X52390506Y-25254463D01*
X52293815Y-25333815D01*
X52214463Y-25430506D01*
X52160000Y-25532397D01*
X52160000Y-24660000D01*
X62340000Y-24660000D01*
X62340000Y-25760581D01*
%TA.AperFunction,NonConductor*%
D13*
G36*
X62340000Y-25760581D02*
G01*
X62279637Y-25670241D01*
X62079759Y-25470363D01*
X61844727Y-25313320D01*
X61583574Y-25205147D01*
X61306335Y-25150000D01*
X61023665Y-25150000D01*
X60746426Y-25205147D01*
X60485273Y-25313320D01*
X60250241Y-25470363D01*
X60050363Y-25670241D01*
X59893320Y-25905273D01*
X59785147Y-26166426D01*
X59730000Y-26443665D01*
X59730000Y-26726335D01*
X59785147Y-27003574D01*
X59893320Y-27264727D01*
X60050363Y-27499759D01*
X60250241Y-27699637D01*
X60482759Y-27855000D01*
X60250241Y-28010363D01*
X60050363Y-28210241D01*
X59893320Y-28445273D01*
X59785147Y-28706426D01*
X59730000Y-28983665D01*
X59730000Y-29266335D01*
X59785147Y-29543574D01*
X59893320Y-29804727D01*
X60050363Y-30039759D01*
X60250241Y-30239637D01*
X60482759Y-30395000D01*
X60250241Y-30550363D01*
X60050363Y-30750241D01*
X59893320Y-30985273D01*
X59785147Y-31246426D01*
X59730000Y-31523665D01*
X59730000Y-31806335D01*
X59785147Y-32083574D01*
X59893320Y-32344727D01*
X60050363Y-32579759D01*
X60250241Y-32779637D01*
X60482759Y-32935000D01*
X60250241Y-33090363D01*
X60050363Y-33290241D01*
X59893320Y-33525273D01*
X59785147Y-33786426D01*
X59730000Y-34063665D01*
X59730000Y-34346335D01*
X59785147Y-34623574D01*
X59893320Y-34884727D01*
X60050363Y-35119759D01*
X60250241Y-35319637D01*
X60485273Y-35476680D01*
X60746426Y-35584853D01*
X61023665Y-35640000D01*
X61306335Y-35640000D01*
X61583574Y-35584853D01*
X61844727Y-35476680D01*
X62079759Y-35319637D01*
X62279637Y-35119759D01*
X62340001Y-35029418D01*
X62340001Y-35840000D01*
X52160000Y-35840000D01*
X52160000Y-34597699D01*
X52165147Y-34623574D01*
X52273320Y-34884727D01*
X52430363Y-35119759D01*
X52630241Y-35319637D01*
X52865273Y-35476680D01*
X53126426Y-35584853D01*
X53403665Y-35640000D01*
X53686335Y-35640000D01*
X53963574Y-35584853D01*
X54224727Y-35476680D01*
X54459759Y-35319637D01*
X54659637Y-35119759D01*
X54816680Y-34884727D01*
X54924853Y-34623574D01*
X54980000Y-34346335D01*
X54980000Y-34063665D01*
X54924853Y-33786426D01*
X54816680Y-33525273D01*
X54659637Y-33290241D01*
X54459759Y-33090363D01*
X54227241Y-32935000D01*
X54459759Y-32779637D01*
X54659637Y-32579759D01*
X54816680Y-32344727D01*
X54924853Y-32083574D01*
X54980000Y-31806335D01*
X54980000Y-31523665D01*
X54924853Y-31246426D01*
X54816680Y-30985273D01*
X54659637Y-30750241D01*
X54459759Y-30550363D01*
X54227241Y-30395000D01*
X54459759Y-30239637D01*
X54659637Y-30039759D01*
X54816680Y-29804727D01*
X54924853Y-29543574D01*
X54980000Y-29266335D01*
X54980000Y-28983665D01*
X54924853Y-28706426D01*
X54816680Y-28445273D01*
X54659637Y-28210241D01*
X54461039Y-28011643D01*
X54469482Y-28010812D01*
X54589180Y-27974502D01*
X54699494Y-27915537D01*
X54796185Y-27836185D01*
X54875537Y-27739494D01*
X54934502Y-27629180D01*
X54970812Y-27509482D01*
X54983072Y-27385000D01*
X54983072Y-25785000D01*
X54970812Y-25660518D01*
X54934502Y-25540820D01*
X54875537Y-25430506D01*
X54796185Y-25333815D01*
X54699494Y-25254463D01*
X54589180Y-25195498D01*
X54469482Y-25159188D01*
X54345000Y-25146928D01*
X52745000Y-25146928D01*
X52620518Y-25159188D01*
X52500820Y-25195498D01*
X52390506Y-25254463D01*
X52293815Y-25333815D01*
X52214463Y-25430506D01*
X52160000Y-25532397D01*
X52160000Y-24660000D01*
X62340000Y-24660000D01*
X62340000Y-25760581D01*
G37*
%TD.AperFunction*%
D12*
X52165147Y-32083574D02*
X52273320Y-32344727D01*
X52430363Y-32579759D01*
X52630241Y-32779637D01*
X52862759Y-32935000D01*
X52630241Y-33090363D01*
X52430363Y-33290241D01*
X52273320Y-33525273D01*
X52165147Y-33786426D01*
X52160000Y-33812301D01*
X52160000Y-32057699D01*
X52165147Y-32083574D01*
%TA.AperFunction,NonConductor*%
D13*
G36*
X52165147Y-32083574D02*
G01*
X52273320Y-32344727D01*
X52430363Y-32579759D01*
X52630241Y-32779637D01*
X52862759Y-32935000D01*
X52630241Y-33090363D01*
X52430363Y-33290241D01*
X52273320Y-33525273D01*
X52165147Y-33786426D01*
X52160000Y-33812301D01*
X52160000Y-32057699D01*
X52165147Y-32083574D01*
G37*
%TD.AperFunction*%
D12*
X62340001Y-33380582D02*
X62279637Y-33290241D01*
X62079759Y-33090363D01*
X61847241Y-32935000D01*
X62079759Y-32779637D01*
X62279637Y-32579759D01*
X62340001Y-32489418D01*
X62340001Y-33380582D01*
%TA.AperFunction,NonConductor*%
D13*
G36*
X62340001Y-33380582D02*
G01*
X62279637Y-33290241D01*
X62079759Y-33090363D01*
X61847241Y-32935000D01*
X62079759Y-32779637D01*
X62279637Y-32579759D01*
X62340001Y-32489418D01*
X62340001Y-33380582D01*
G37*
%TD.AperFunction*%
D12*
X52165147Y-29543574D02*
X52273320Y-29804727D01*
X52430363Y-30039759D01*
X52630241Y-30239637D01*
X52862759Y-30395000D01*
X52630241Y-30550363D01*
X52430363Y-30750241D01*
X52273320Y-30985273D01*
X52165147Y-31246426D01*
X52160000Y-31272301D01*
X52160000Y-29517699D01*
X52165147Y-29543574D01*
%TA.AperFunction,NonConductor*%
D13*
G36*
X52165147Y-29543574D02*
G01*
X52273320Y-29804727D01*
X52430363Y-30039759D01*
X52630241Y-30239637D01*
X52862759Y-30395000D01*
X52630241Y-30550363D01*
X52430363Y-30750241D01*
X52273320Y-30985273D01*
X52165147Y-31246426D01*
X52160000Y-31272301D01*
X52160000Y-29517699D01*
X52165147Y-29543574D01*
G37*
%TD.AperFunction*%
D12*
X62340001Y-30840582D02*
X62279637Y-30750241D01*
X62079759Y-30550363D01*
X61847241Y-30395000D01*
X62079759Y-30239637D01*
X62279637Y-30039759D01*
X62340000Y-29949418D01*
X62340001Y-30840582D01*
%TA.AperFunction,NonConductor*%
D13*
G36*
X62340001Y-30840582D02*
G01*
X62279637Y-30750241D01*
X62079759Y-30550363D01*
X61847241Y-30395000D01*
X62079759Y-30239637D01*
X62279637Y-30039759D01*
X62340000Y-29949418D01*
X62340001Y-30840582D01*
G37*
%TD.AperFunction*%
D12*
X52214463Y-27739494D02*
X52293815Y-27836185D01*
X52390506Y-27915537D01*
X52500820Y-27974502D01*
X52620518Y-28010812D01*
X52628961Y-28011643D01*
X52430363Y-28210241D01*
X52273320Y-28445273D01*
X52165147Y-28706426D01*
X52160000Y-28732301D01*
X52160000Y-27637603D01*
X52214463Y-27739494D01*
%TA.AperFunction,NonConductor*%
D13*
G36*
X52214463Y-27739494D02*
G01*
X52293815Y-27836185D01*
X52390506Y-27915537D01*
X52500820Y-27974502D01*
X52620518Y-28010812D01*
X52628961Y-28011643D01*
X52430363Y-28210241D01*
X52273320Y-28445273D01*
X52165147Y-28706426D01*
X52160000Y-28732301D01*
X52160000Y-27637603D01*
X52214463Y-27739494D01*
G37*
%TD.AperFunction*%
D12*
X62340000Y-28300581D02*
X62279637Y-28210241D01*
X62079759Y-28010363D01*
X61847241Y-27855000D01*
X62079759Y-27699637D01*
X62279637Y-27499759D01*
X62340000Y-27409419D01*
X62340000Y-28300581D01*
%TA.AperFunction,NonConductor*%
D13*
G36*
X62340000Y-28300581D02*
G01*
X62279637Y-28210241D01*
X62079759Y-28010363D01*
X61847241Y-27855000D01*
X62079759Y-27699637D01*
X62279637Y-27499759D01*
X62340000Y-27409419D01*
X62340000Y-28300581D01*
G37*
%TD.AperFunction*%
M02*
