%TF.GenerationSoftware,KiCad,Pcbnew,5.1.10*%
%TF.CreationDate,2021-08-03T18:50:16+02:00*%
%TF.ProjectId,smd-converter,736d642d-636f-46e7-9665-727465722e6b,rev?*%
%TF.SameCoordinates,Original*%
%TF.FileFunction,Legend,Top*%
%TF.FilePolarity,Positive*%
%FSLAX46Y46*%
G04 Gerber Fmt 4.6, Leading zero omitted, Abs format (unit mm)*
G04 Created by KiCad (PCBNEW 5.1.10) date 2021-08-03 18:50:16*
%MOMM*%
%LPD*%
G01*
G04 APERTURE LIST*
%ADD10C,0.300000*%
%ADD11C,0.120000*%
%ADD12C,0.150000*%
G04 APERTURE END LIST*
D10*
X55500000Y-34428571D02*
X55500000Y-34785714D01*
X55142857Y-34642857D02*
X55500000Y-34785714D01*
X55857142Y-34642857D01*
X55285714Y-35071428D02*
X55500000Y-34785714D01*
X55714285Y-35071428D01*
D11*
%TO.C,J1*%
X56355000Y-25255000D02*
X54705000Y-25255000D01*
X54705000Y-25255000D02*
X54705000Y-35535000D01*
X54705000Y-35535000D02*
X60005000Y-35535000D01*
X60005000Y-35535000D02*
X60005000Y-25255000D01*
X60005000Y-25255000D02*
X58355000Y-25255000D01*
X58355000Y-25255000D02*
G75*
G02*
X56355000Y-25255000I-1000000J0D01*
G01*
%TO.C,U1*%
X59925000Y-30425000D02*
X59925000Y-28475000D01*
X59925000Y-30425000D02*
X59925000Y-32375000D01*
X54805000Y-30425000D02*
X54805000Y-28475000D01*
X54805000Y-30425000D02*
X54805000Y-33875000D01*
D12*
X55471428Y-30952380D02*
X55042857Y-30952380D01*
X55042857Y-29952380D01*
X55642857Y-29952380D02*
X56157142Y-29952380D01*
X55900000Y-30952380D02*
X55900000Y-29952380D01*
X56842857Y-29952380D02*
X56671428Y-29952380D01*
X56585714Y-30000000D01*
X56542857Y-30047619D01*
X56457142Y-30190476D01*
X56414285Y-30380952D01*
X56414285Y-30761904D01*
X56457142Y-30857142D01*
X56500000Y-30904761D01*
X56585714Y-30952380D01*
X56757142Y-30952380D01*
X56842857Y-30904761D01*
X56885714Y-30857142D01*
X56928571Y-30761904D01*
X56928571Y-30523809D01*
X56885714Y-30428571D01*
X56842857Y-30380952D01*
X56757142Y-30333333D01*
X56585714Y-30333333D01*
X56500000Y-30380952D01*
X56457142Y-30428571D01*
X56414285Y-30523809D01*
X57271428Y-30047619D02*
X57314285Y-30000000D01*
X57400000Y-29952380D01*
X57614285Y-29952380D01*
X57700000Y-30000000D01*
X57742857Y-30047619D01*
X57785714Y-30142857D01*
X57785714Y-30238095D01*
X57742857Y-30380952D01*
X57228571Y-30952380D01*
X57785714Y-30952380D01*
X58085714Y-29952380D02*
X58642857Y-29952380D01*
X58342857Y-30333333D01*
X58471428Y-30333333D01*
X58557142Y-30380952D01*
X58600000Y-30428571D01*
X58642857Y-30523809D01*
X58642857Y-30761904D01*
X58600000Y-30857142D01*
X58557142Y-30904761D01*
X58471428Y-30952380D01*
X58214285Y-30952380D01*
X58128571Y-30904761D01*
X58085714Y-30857142D01*
X59414285Y-30285714D02*
X59414285Y-30952380D01*
X59200000Y-29904761D02*
X58985714Y-30619047D01*
X59542857Y-30619047D01*
%TD*%
M02*
