%FSLAX45Y45*%
G04 Gerber Fmt 4.5, Leading zero omitted, Abs format (unit mm)*
G04 Created by KiCad (PCBNEW 5.1.10) date 2021-08-03 18:50:14*
%MOMM*%
%LPD*%
G01*
G04 APERTURE LIST*
%TA.AperFunction,Profile*%
%ADD10C,0.050000*%
%TD*%
%ADD11C,0.200000*%
%ADD12C,0.300000*%
G04 APERTURE END LIST*
D10*
X5150000Y-3650000D02*
X5150000Y-2400000D01*
X6300000Y-3650000D02*
X5150000Y-3650000D01*
X6300000Y-3600000D02*
X6300000Y-3650000D01*
X6300000Y-2400000D02*
X6300000Y-3600000D01*
X5150000Y-2400000D02*
X6300000Y-2400000D01*
D11*
D12*
X5433928Y-4118214D02*
X5433928Y-3818214D01*
X5505357Y-3818214D01*
X5548214Y-3832500D01*
X5576786Y-3861071D01*
X5591071Y-3889643D01*
X5605357Y-3946786D01*
X5605357Y-3989643D01*
X5591071Y-4046786D01*
X5576786Y-4075357D01*
X5548214Y-4103929D01*
X5505357Y-4118214D01*
X5433928Y-4118214D01*
X5733928Y-4118214D02*
X5733928Y-3918214D01*
X5733928Y-3975357D02*
X5748214Y-3946786D01*
X5762500Y-3932500D01*
X5791071Y-3918214D01*
X5819643Y-3918214D01*
X5919643Y-4118214D02*
X5919643Y-3918214D01*
X5919643Y-3818214D02*
X5905357Y-3832500D01*
X5919643Y-3846786D01*
X5933928Y-3832500D01*
X5919643Y-3818214D01*
X5919643Y-3846786D01*
X6105357Y-4118214D02*
X6076786Y-4103929D01*
X6062500Y-4075357D01*
X6062500Y-3818214D01*
X6262500Y-4118214D02*
X6233928Y-4103929D01*
X6219643Y-4075357D01*
X6219643Y-3818214D01*
X6605357Y-4118214D02*
X6605357Y-3818214D01*
X6705357Y-4032500D01*
X6805357Y-3818214D01*
X6805357Y-4118214D01*
X7076786Y-4118214D02*
X7076786Y-3961071D01*
X7062500Y-3932500D01*
X7033928Y-3918214D01*
X6976786Y-3918214D01*
X6948214Y-3932500D01*
X7076786Y-4103929D02*
X7048214Y-4118214D01*
X6976786Y-4118214D01*
X6948214Y-4103929D01*
X6933928Y-4075357D01*
X6933928Y-4046786D01*
X6948214Y-4018214D01*
X6976786Y-4003929D01*
X7048214Y-4003929D01*
X7076786Y-3989643D01*
X7219643Y-3918214D02*
X7219643Y-4218214D01*
X7219643Y-3932500D02*
X7248214Y-3918214D01*
X7305357Y-3918214D01*
X7333928Y-3932500D01*
X7348214Y-3946786D01*
X7362500Y-3975357D01*
X7362500Y-4061071D01*
X7348214Y-4089643D01*
X7333928Y-4103929D01*
X7305357Y-4118214D01*
X7248214Y-4118214D01*
X7219643Y-4103929D01*
X7491071Y-4089643D02*
X7505357Y-4103929D01*
X7491071Y-4118214D01*
X7476786Y-4103929D01*
X7491071Y-4089643D01*
X7491071Y-4118214D01*
X7491071Y-3932500D02*
X7505357Y-3946786D01*
X7491071Y-3961071D01*
X7476786Y-3946786D01*
X7491071Y-3932500D01*
X7491071Y-3961071D01*
M02*
