%TF.GenerationSoftware,KiCad,Pcbnew,5.1.10*%
%TF.CreationDate,2021-08-03T19:32:28+02:00*%
%TF.ProjectId,smd-converter,736d642d-636f-46e7-9665-727465722e6b,rev?*%
%TF.SameCoordinates,Original*%
%TF.FileFunction,Legend,Top*%
%TF.FilePolarity,Positive*%
%FSLAX46Y46*%
G04 Gerber Fmt 4.6, Leading zero omitted, Abs format (unit mm)*
G04 Created by KiCad (PCBNEW 5.1.10) date 2021-08-03 19:32:28*
%MOMM*%
%LPD*%
G01*
G04 APERTURE LIST*
%ADD10C,0.300000*%
%ADD11C,0.120000*%
%ADD12C,0.150000*%
G04 APERTURE END LIST*
D10*
X55500000Y-34428571D02*
X55500000Y-34785714D01*
X55142857Y-34642857D02*
X55500000Y-34785714D01*
X55857142Y-34642857D01*
X55285714Y-35071428D02*
X55500000Y-34785714D01*
X55714285Y-35071428D01*
D11*
%TO.C,J1*%
X58355000Y-25255000D02*
G75*
G02*
X56355000Y-25255000I-1000000J0D01*
G01*
X60005000Y-25255000D02*
X58355000Y-25255000D01*
X60005000Y-35535000D02*
X60005000Y-25255000D01*
X54705000Y-35535000D02*
X60005000Y-35535000D01*
X54705000Y-25255000D02*
X54705000Y-35535000D01*
X56355000Y-25255000D02*
X54705000Y-25255000D01*
%TO.C,U1*%
X54805000Y-30425000D02*
X54805000Y-33875000D01*
X54805000Y-30425000D02*
X54805000Y-28475000D01*
X59925000Y-30425000D02*
X59925000Y-32375000D01*
X59925000Y-30425000D02*
X59925000Y-28475000D01*
D12*
X55721428Y-24952380D02*
X55292857Y-24952380D01*
X55292857Y-23952380D01*
X55892857Y-23952380D02*
X56407142Y-23952380D01*
X56150000Y-24952380D02*
X56150000Y-23952380D01*
X57092857Y-23952380D02*
X56921428Y-23952380D01*
X56835714Y-24000000D01*
X56792857Y-24047619D01*
X56707142Y-24190476D01*
X56664285Y-24380952D01*
X56664285Y-24761904D01*
X56707142Y-24857142D01*
X56750000Y-24904761D01*
X56835714Y-24952380D01*
X57007142Y-24952380D01*
X57092857Y-24904761D01*
X57135714Y-24857142D01*
X57178571Y-24761904D01*
X57178571Y-24523809D01*
X57135714Y-24428571D01*
X57092857Y-24380952D01*
X57007142Y-24333333D01*
X56835714Y-24333333D01*
X56750000Y-24380952D01*
X56707142Y-24428571D01*
X56664285Y-24523809D01*
X57521428Y-24047619D02*
X57564285Y-24000000D01*
X57650000Y-23952380D01*
X57864285Y-23952380D01*
X57950000Y-24000000D01*
X57992857Y-24047619D01*
X58035714Y-24142857D01*
X58035714Y-24238095D01*
X57992857Y-24380952D01*
X57478571Y-24952380D01*
X58035714Y-24952380D01*
X58335714Y-23952380D02*
X58892857Y-23952380D01*
X58592857Y-24333333D01*
X58721428Y-24333333D01*
X58807142Y-24380952D01*
X58850000Y-24428571D01*
X58892857Y-24523809D01*
X58892857Y-24761904D01*
X58850000Y-24857142D01*
X58807142Y-24904761D01*
X58721428Y-24952380D01*
X58464285Y-24952380D01*
X58378571Y-24904761D01*
X58335714Y-24857142D01*
X59664285Y-24285714D02*
X59664285Y-24952380D01*
X59450000Y-23904761D02*
X59235714Y-24619047D01*
X59792857Y-24619047D01*
%TD*%
M02*
