%TF.GenerationSoftware,KiCad,Pcbnew,5.1.10*%
%TF.CreationDate,2021-08-03T18:50:16+02:00*%
%TF.ProjectId,smd-converter,736d642d-636f-46e7-9665-727465722e6b,rev?*%
%TF.SameCoordinates,Original*%
%TF.FileFunction,Soldermask,Top*%
%TF.FilePolarity,Negative*%
%FSLAX46Y46*%
G04 Gerber Fmt 4.6, Leading zero omitted, Abs format (unit mm)*
G04 Created by KiCad (PCBNEW 5.1.10) date 2021-08-03 18:50:16*
%MOMM*%
%LPD*%
G01*
G04 APERTURE LIST*
%ADD10R,1.600000X1.600000*%
%ADD11O,1.600000X1.600000*%
G04 APERTURE END LIST*
D10*
%TO.C,J1*%
X53545000Y-26585000D03*
D11*
X61165000Y-34205000D03*
X53545000Y-29125000D03*
X61165000Y-31665000D03*
X53545000Y-31665000D03*
X61165000Y-29125000D03*
X53545000Y-34205000D03*
X61165000Y-26585000D03*
%TD*%
%TO.C,U1*%
G36*
G01*
X55610000Y-33875000D02*
X55310000Y-33875000D01*
G75*
G02*
X55160000Y-33725000I0J150000D01*
G01*
X55160000Y-32075000D01*
G75*
G02*
X55310000Y-31925000I150000J0D01*
G01*
X55610000Y-31925000D01*
G75*
G02*
X55760000Y-32075000I0J-150000D01*
G01*
X55760000Y-33725000D01*
G75*
G02*
X55610000Y-33875000I-150000J0D01*
G01*
G37*
G36*
G01*
X56880000Y-33875000D02*
X56580000Y-33875000D01*
G75*
G02*
X56430000Y-33725000I0J150000D01*
G01*
X56430000Y-32075000D01*
G75*
G02*
X56580000Y-31925000I150000J0D01*
G01*
X56880000Y-31925000D01*
G75*
G02*
X57030000Y-32075000I0J-150000D01*
G01*
X57030000Y-33725000D01*
G75*
G02*
X56880000Y-33875000I-150000J0D01*
G01*
G37*
G36*
G01*
X58150000Y-33875000D02*
X57850000Y-33875000D01*
G75*
G02*
X57700000Y-33725000I0J150000D01*
G01*
X57700000Y-32075000D01*
G75*
G02*
X57850000Y-31925000I150000J0D01*
G01*
X58150000Y-31925000D01*
G75*
G02*
X58300000Y-32075000I0J-150000D01*
G01*
X58300000Y-33725000D01*
G75*
G02*
X58150000Y-33875000I-150000J0D01*
G01*
G37*
G36*
G01*
X59420000Y-33875000D02*
X59120000Y-33875000D01*
G75*
G02*
X58970000Y-33725000I0J150000D01*
G01*
X58970000Y-32075000D01*
G75*
G02*
X59120000Y-31925000I150000J0D01*
G01*
X59420000Y-31925000D01*
G75*
G02*
X59570000Y-32075000I0J-150000D01*
G01*
X59570000Y-33725000D01*
G75*
G02*
X59420000Y-33875000I-150000J0D01*
G01*
G37*
G36*
G01*
X59420000Y-28925000D02*
X59120000Y-28925000D01*
G75*
G02*
X58970000Y-28775000I0J150000D01*
G01*
X58970000Y-27125000D01*
G75*
G02*
X59120000Y-26975000I150000J0D01*
G01*
X59420000Y-26975000D01*
G75*
G02*
X59570000Y-27125000I0J-150000D01*
G01*
X59570000Y-28775000D01*
G75*
G02*
X59420000Y-28925000I-150000J0D01*
G01*
G37*
G36*
G01*
X58150000Y-28925000D02*
X57850000Y-28925000D01*
G75*
G02*
X57700000Y-28775000I0J150000D01*
G01*
X57700000Y-27125000D01*
G75*
G02*
X57850000Y-26975000I150000J0D01*
G01*
X58150000Y-26975000D01*
G75*
G02*
X58300000Y-27125000I0J-150000D01*
G01*
X58300000Y-28775000D01*
G75*
G02*
X58150000Y-28925000I-150000J0D01*
G01*
G37*
G36*
G01*
X56880000Y-28925000D02*
X56580000Y-28925000D01*
G75*
G02*
X56430000Y-28775000I0J150000D01*
G01*
X56430000Y-27125000D01*
G75*
G02*
X56580000Y-26975000I150000J0D01*
G01*
X56880000Y-26975000D01*
G75*
G02*
X57030000Y-27125000I0J-150000D01*
G01*
X57030000Y-28775000D01*
G75*
G02*
X56880000Y-28925000I-150000J0D01*
G01*
G37*
G36*
G01*
X55610000Y-28925000D02*
X55310000Y-28925000D01*
G75*
G02*
X55160000Y-28775000I0J150000D01*
G01*
X55160000Y-27125000D01*
G75*
G02*
X55310000Y-26975000I150000J0D01*
G01*
X55610000Y-26975000D01*
G75*
G02*
X55760000Y-27125000I0J-150000D01*
G01*
X55760000Y-28775000D01*
G75*
G02*
X55610000Y-28925000I-150000J0D01*
G01*
G37*
%TD*%
M02*
