%TF.GenerationSoftware,KiCad,Pcbnew,5.1.10*%
%TF.CreationDate,2021-08-03T18:50:16+02:00*%
%TF.ProjectId,smd-converter,736d642d-636f-46e7-9665-727465722e6b,rev?*%
%TF.SameCoordinates,Original*%
%TF.FileFunction,Copper,L1,Top*%
%TF.FilePolarity,Positive*%
%FSLAX46Y46*%
G04 Gerber Fmt 4.6, Leading zero omitted, Abs format (unit mm)*
G04 Created by KiCad (PCBNEW 5.1.10) date 2021-08-03 18:50:16*
%MOMM*%
%LPD*%
G01*
G04 APERTURE LIST*
%TA.AperFunction,ComponentPad*%
%ADD10R,1.600000X1.600000*%
%TD*%
%TA.AperFunction,ComponentPad*%
%ADD11O,1.600000X1.600000*%
%TD*%
%TA.AperFunction,Conductor*%
%ADD12C,0.250000*%
%TD*%
%TA.AperFunction,NonConductor*%
%ADD13C,0.254000*%
%TD*%
%TA.AperFunction,NonConductor*%
%ADD14C,0.100000*%
%TD*%
G04 APERTURE END LIST*
D10*
%TO.P,J1,1*%
%TO.N,Net-(J1-Pad1)*%
X53545000Y-26585000D03*
D11*
%TO.P,J1,5*%
%TO.N,Net-(J1-Pad5)*%
X61165000Y-34205000D03*
%TO.P,J1,2*%
%TO.N,Net-(J1-Pad2)*%
X53545000Y-29125000D03*
%TO.P,J1,6*%
%TO.N,Net-(J1-Pad6)*%
X61165000Y-31665000D03*
%TO.P,J1,3*%
%TO.N,Net-(J1-Pad3)*%
X53545000Y-31665000D03*
%TO.P,J1,7*%
%TO.N,Net-(J1-Pad7)*%
X61165000Y-29125000D03*
%TO.P,J1,4*%
%TO.N,Net-(J1-Pad4)*%
X53545000Y-34205000D03*
%TO.P,J1,8*%
%TO.N,Net-(J1-Pad8)*%
X61165000Y-26585000D03*
%TD*%
%TO.P,U1,1*%
%TO.N,Net-(J1-Pad1)*%
%TA.AperFunction,SMDPad,CuDef*%
G36*
G01*
X55610000Y-33875000D02*
X55310000Y-33875000D01*
G75*
G02*
X55160000Y-33725000I0J150000D01*
G01*
X55160000Y-32075000D01*
G75*
G02*
X55310000Y-31925000I150000J0D01*
G01*
X55610000Y-31925000D01*
G75*
G02*
X55760000Y-32075000I0J-150000D01*
G01*
X55760000Y-33725000D01*
G75*
G02*
X55610000Y-33875000I-150000J0D01*
G01*
G37*
%TD.AperFunction*%
%TO.P,U1,2*%
%TO.N,Net-(J1-Pad2)*%
%TA.AperFunction,SMDPad,CuDef*%
G36*
G01*
X56880000Y-33875000D02*
X56580000Y-33875000D01*
G75*
G02*
X56430000Y-33725000I0J150000D01*
G01*
X56430000Y-32075000D01*
G75*
G02*
X56580000Y-31925000I150000J0D01*
G01*
X56880000Y-31925000D01*
G75*
G02*
X57030000Y-32075000I0J-150000D01*
G01*
X57030000Y-33725000D01*
G75*
G02*
X56880000Y-33875000I-150000J0D01*
G01*
G37*
%TD.AperFunction*%
%TO.P,U1,3*%
%TO.N,Net-(J1-Pad3)*%
%TA.AperFunction,SMDPad,CuDef*%
G36*
G01*
X58150000Y-33875000D02*
X57850000Y-33875000D01*
G75*
G02*
X57700000Y-33725000I0J150000D01*
G01*
X57700000Y-32075000D01*
G75*
G02*
X57850000Y-31925000I150000J0D01*
G01*
X58150000Y-31925000D01*
G75*
G02*
X58300000Y-32075000I0J-150000D01*
G01*
X58300000Y-33725000D01*
G75*
G02*
X58150000Y-33875000I-150000J0D01*
G01*
G37*
%TD.AperFunction*%
%TO.P,U1,4*%
%TO.N,Net-(J1-Pad4)*%
%TA.AperFunction,SMDPad,CuDef*%
G36*
G01*
X59420000Y-33875000D02*
X59120000Y-33875000D01*
G75*
G02*
X58970000Y-33725000I0J150000D01*
G01*
X58970000Y-32075000D01*
G75*
G02*
X59120000Y-31925000I150000J0D01*
G01*
X59420000Y-31925000D01*
G75*
G02*
X59570000Y-32075000I0J-150000D01*
G01*
X59570000Y-33725000D01*
G75*
G02*
X59420000Y-33875000I-150000J0D01*
G01*
G37*
%TD.AperFunction*%
%TO.P,U1,5*%
%TO.N,Net-(J1-Pad5)*%
%TA.AperFunction,SMDPad,CuDef*%
G36*
G01*
X59420000Y-28925000D02*
X59120000Y-28925000D01*
G75*
G02*
X58970000Y-28775000I0J150000D01*
G01*
X58970000Y-27125000D01*
G75*
G02*
X59120000Y-26975000I150000J0D01*
G01*
X59420000Y-26975000D01*
G75*
G02*
X59570000Y-27125000I0J-150000D01*
G01*
X59570000Y-28775000D01*
G75*
G02*
X59420000Y-28925000I-150000J0D01*
G01*
G37*
%TD.AperFunction*%
%TO.P,U1,6*%
%TO.N,Net-(J1-Pad6)*%
%TA.AperFunction,SMDPad,CuDef*%
G36*
G01*
X58150000Y-28925000D02*
X57850000Y-28925000D01*
G75*
G02*
X57700000Y-28775000I0J150000D01*
G01*
X57700000Y-27125000D01*
G75*
G02*
X57850000Y-26975000I150000J0D01*
G01*
X58150000Y-26975000D01*
G75*
G02*
X58300000Y-27125000I0J-150000D01*
G01*
X58300000Y-28775000D01*
G75*
G02*
X58150000Y-28925000I-150000J0D01*
G01*
G37*
%TD.AperFunction*%
%TO.P,U1,7*%
%TO.N,Net-(J1-Pad7)*%
%TA.AperFunction,SMDPad,CuDef*%
G36*
G01*
X56880000Y-28925000D02*
X56580000Y-28925000D01*
G75*
G02*
X56430000Y-28775000I0J150000D01*
G01*
X56430000Y-27125000D01*
G75*
G02*
X56580000Y-26975000I150000J0D01*
G01*
X56880000Y-26975000D01*
G75*
G02*
X57030000Y-27125000I0J-150000D01*
G01*
X57030000Y-28775000D01*
G75*
G02*
X56880000Y-28925000I-150000J0D01*
G01*
G37*
%TD.AperFunction*%
%TO.P,U1,8*%
%TO.N,Net-(J1-Pad8)*%
%TA.AperFunction,SMDPad,CuDef*%
G36*
G01*
X55610000Y-28925000D02*
X55310000Y-28925000D01*
G75*
G02*
X55160000Y-28775000I0J150000D01*
G01*
X55160000Y-27125000D01*
G75*
G02*
X55310000Y-26975000I150000J0D01*
G01*
X55610000Y-26975000D01*
G75*
G02*
X55760000Y-27125000I0J-150000D01*
G01*
X55760000Y-28775000D01*
G75*
G02*
X55610000Y-28925000I-150000J0D01*
G01*
G37*
%TD.AperFunction*%
%TD*%
D12*
%TO.N,Net-(J1-Pad1)*%
X53545000Y-26585000D02*
X53545000Y-27710300D01*
X53545000Y-27710300D02*
X53826400Y-27710300D01*
X53826400Y-27710300D02*
X54670300Y-28554200D01*
X54670300Y-28554200D02*
X54670300Y-29338600D01*
X54670300Y-29338600D02*
X57365000Y-32033300D01*
X57365000Y-32033300D02*
X57365000Y-33970900D01*
X57365000Y-33970900D02*
X57131000Y-34204900D01*
X57131000Y-34204900D02*
X56384400Y-34204900D01*
X56384400Y-34204900D02*
X55460000Y-33280500D01*
X55460000Y-33280500D02*
X55460000Y-33000000D01*
%TO.N,Net-(J1-Pad5)*%
X61165000Y-34205000D02*
X61165000Y-33079700D01*
X61165000Y-33079700D02*
X60897000Y-33079700D01*
X60897000Y-33079700D02*
X57361900Y-29544600D01*
X57361900Y-29544600D02*
X57361900Y-26934800D01*
X57361900Y-26934800D02*
X57655400Y-26641300D01*
X57655400Y-26641300D02*
X58400900Y-26641300D01*
X58400900Y-26641300D02*
X59270000Y-27510400D01*
X59270000Y-27510400D02*
X59270000Y-27850000D01*
%TO.N,Net-(J1-Pad2)*%
X53545000Y-29125000D02*
X53545000Y-30250300D01*
X56730000Y-33000000D02*
X56730000Y-32655000D01*
X56730000Y-32655000D02*
X54325300Y-30250300D01*
X54325300Y-30250300D02*
X53545000Y-30250300D01*
%TO.N,Net-(J1-Pad6)*%
X61165000Y-31665000D02*
X61165000Y-30539700D01*
X61165000Y-30539700D02*
X60364700Y-30539700D01*
X60364700Y-30539700D02*
X58000000Y-28175000D01*
X58000000Y-28175000D02*
X58000000Y-27850000D01*
%TO.N,Net-(J1-Pad3)*%
X53545000Y-32790300D02*
X53775400Y-32790300D01*
X53775400Y-32790300D02*
X54670300Y-33685200D01*
X54670300Y-33685200D02*
X54670300Y-33813200D01*
X54670300Y-33813200D02*
X55512400Y-34655300D01*
X55512400Y-34655300D02*
X57317500Y-34655300D01*
X57317500Y-34655300D02*
X58000000Y-33972800D01*
X58000000Y-33972800D02*
X58000000Y-33000000D01*
X53545000Y-31665000D02*
X53545000Y-32790300D01*
%TO.N,Net-(J1-Pad7)*%
X61165000Y-27999700D02*
X60966900Y-27999700D01*
X60966900Y-27999700D02*
X59158200Y-26191000D01*
X59158200Y-26191000D02*
X57468800Y-26191000D01*
X57468800Y-26191000D02*
X56730000Y-26929800D01*
X56730000Y-26929800D02*
X56730000Y-27850000D01*
X61165000Y-29125000D02*
X61165000Y-27999700D01*
%TO.N,Net-(J1-Pad4)*%
X53545000Y-34205000D02*
X54473700Y-35133700D01*
X54473700Y-35133700D02*
X57499700Y-35133700D01*
X57499700Y-35133700D02*
X59270000Y-33363400D01*
X59270000Y-33363400D02*
X59270000Y-33000000D01*
%TO.N,Net-(J1-Pad8)*%
X61165000Y-26585000D02*
X60315300Y-25735300D01*
X60315300Y-25735300D02*
X57283800Y-25735300D01*
X57283800Y-25735300D02*
X55460000Y-27559100D01*
X55460000Y-27559100D02*
X55460000Y-27850000D01*
%TD*%
D13*
X52165147Y-34623574D02*
X52273320Y-34884727D01*
X52430363Y-35119759D01*
X52630241Y-35319637D01*
X52865273Y-35476680D01*
X53126426Y-35584853D01*
X53403665Y-35640000D01*
X53686335Y-35640000D01*
X53868886Y-35603688D01*
X53909901Y-35644703D01*
X53933699Y-35673701D01*
X53962697Y-35697499D01*
X54049423Y-35768674D01*
X54181453Y-35839246D01*
X54183939Y-35840000D01*
X52160000Y-35840000D01*
X52160000Y-34597699D01*
X52165147Y-34623574D01*
%TA.AperFunction,NonConductor*%
D14*
G36*
X52165147Y-34623574D02*
G01*
X52273320Y-34884727D01*
X52430363Y-35119759D01*
X52630241Y-35319637D01*
X52865273Y-35476680D01*
X53126426Y-35584853D01*
X53403665Y-35640000D01*
X53686335Y-35640000D01*
X53868886Y-35603688D01*
X53909901Y-35644703D01*
X53933699Y-35673701D01*
X53962697Y-35697499D01*
X54049423Y-35768674D01*
X54181453Y-35839246D01*
X54183939Y-35840000D01*
X52160000Y-35840000D01*
X52160000Y-34597699D01*
X52165147Y-34623574D01*
G37*
%TD.AperFunction*%
D13*
X59785147Y-34623574D02*
X59893320Y-34884727D01*
X60050363Y-35119759D01*
X60250241Y-35319637D01*
X60485273Y-35476680D01*
X60746426Y-35584853D01*
X61023665Y-35640000D01*
X61306335Y-35640000D01*
X61583574Y-35584853D01*
X61844727Y-35476680D01*
X62079759Y-35319637D01*
X62279637Y-35119759D01*
X62340001Y-35029418D01*
X62340001Y-35840000D01*
X57789461Y-35840000D01*
X57791947Y-35839246D01*
X57923976Y-35768674D01*
X58039701Y-35673701D01*
X58063504Y-35644697D01*
X59195130Y-34513072D01*
X59420000Y-34513072D01*
X59573745Y-34497929D01*
X59721582Y-34453084D01*
X59748384Y-34438758D01*
X59785147Y-34623574D01*
%TA.AperFunction,NonConductor*%
D14*
G36*
X59785147Y-34623574D02*
G01*
X59893320Y-34884727D01*
X60050363Y-35119759D01*
X60250241Y-35319637D01*
X60485273Y-35476680D01*
X60746426Y-35584853D01*
X61023665Y-35640000D01*
X61306335Y-35640000D01*
X61583574Y-35584853D01*
X61844727Y-35476680D01*
X62079759Y-35319637D01*
X62279637Y-35119759D01*
X62340001Y-35029418D01*
X62340001Y-35840000D01*
X57789461Y-35840000D01*
X57791947Y-35839246D01*
X57923976Y-35768674D01*
X58039701Y-35673701D01*
X58063504Y-35644697D01*
X59195130Y-34513072D01*
X59420000Y-34513072D01*
X59573745Y-34497929D01*
X59721582Y-34453084D01*
X59748384Y-34438758D01*
X59785147Y-34623574D01*
G37*
%TD.AperFunction*%
D13*
X52165147Y-32083574D02*
X52273320Y-32344727D01*
X52430363Y-32579759D01*
X52630241Y-32779637D01*
X52790842Y-32886947D01*
X52795997Y-32939286D01*
X52806167Y-32972813D01*
X52630241Y-33090363D01*
X52430363Y-33290241D01*
X52273320Y-33525273D01*
X52165147Y-33786426D01*
X52160000Y-33812301D01*
X52160000Y-32057699D01*
X52165147Y-32083574D01*
%TA.AperFunction,NonConductor*%
D14*
G36*
X52165147Y-32083574D02*
G01*
X52273320Y-32344727D01*
X52430363Y-32579759D01*
X52630241Y-32779637D01*
X52790842Y-32886947D01*
X52795997Y-32939286D01*
X52806167Y-32972813D01*
X52630241Y-33090363D01*
X52430363Y-33290241D01*
X52273320Y-33525273D01*
X52165147Y-33786426D01*
X52160000Y-33812301D01*
X52160000Y-32057699D01*
X52165147Y-32083574D01*
G37*
%TD.AperFunction*%
D13*
X62340001Y-33380582D02*
X62279637Y-33290241D01*
X62079759Y-33090363D01*
X61919158Y-32983053D01*
X61914003Y-32930714D01*
X61903833Y-32897187D01*
X62079759Y-32779637D01*
X62279637Y-32579759D01*
X62340001Y-32489418D01*
X62340001Y-33380582D01*
%TA.AperFunction,NonConductor*%
D14*
G36*
X62340001Y-33380582D02*
G01*
X62279637Y-33290241D01*
X62079759Y-33090363D01*
X61919158Y-32983053D01*
X61914003Y-32930714D01*
X61903833Y-32897187D01*
X62079759Y-32779637D01*
X62279637Y-32579759D01*
X62340001Y-32489418D01*
X62340001Y-33380582D01*
G37*
%TD.AperFunction*%
D13*
X56142171Y-29430258D02*
X56278418Y-29503084D01*
X56426255Y-29547929D01*
X56580000Y-29563072D01*
X56600043Y-29563072D01*
X56601900Y-29581922D01*
X56601900Y-29581932D01*
X56612897Y-29693585D01*
X56642355Y-29790697D01*
X56656354Y-29836846D01*
X56726926Y-29968876D01*
X56730782Y-29973574D01*
X56821899Y-30084601D01*
X56850903Y-30108404D01*
X58029427Y-31286928D01*
X57850000Y-31286928D01*
X57707468Y-31300967D01*
X55910050Y-29503549D01*
X55911582Y-29503084D01*
X56047829Y-29430258D01*
X56095000Y-29391546D01*
X56142171Y-29430258D01*
%TA.AperFunction,NonConductor*%
D14*
G36*
X56142171Y-29430258D02*
G01*
X56278418Y-29503084D01*
X56426255Y-29547929D01*
X56580000Y-29563072D01*
X56600043Y-29563072D01*
X56601900Y-29581922D01*
X56601900Y-29581932D01*
X56612897Y-29693585D01*
X56642355Y-29790697D01*
X56656354Y-29836846D01*
X56726926Y-29968876D01*
X56730782Y-29973574D01*
X56821899Y-30084601D01*
X56850903Y-30108404D01*
X58029427Y-31286928D01*
X57850000Y-31286928D01*
X57707468Y-31300967D01*
X55910050Y-29503549D01*
X55911582Y-29503084D01*
X56047829Y-29430258D01*
X56095000Y-29391546D01*
X56142171Y-29430258D01*
G37*
%TD.AperFunction*%
D13*
X52165147Y-29543574D02*
X52273320Y-29804727D01*
X52430363Y-30039759D01*
X52630241Y-30239637D01*
X52790842Y-30346947D01*
X52795997Y-30399286D01*
X52806167Y-30432813D01*
X52630241Y-30550363D01*
X52430363Y-30750241D01*
X52273320Y-30985273D01*
X52165147Y-31246426D01*
X52160000Y-31272301D01*
X52160000Y-29517699D01*
X52165147Y-29543574D01*
%TA.AperFunction,NonConductor*%
D14*
G36*
X52165147Y-29543574D02*
G01*
X52273320Y-29804727D01*
X52430363Y-30039759D01*
X52630241Y-30239637D01*
X52790842Y-30346947D01*
X52795997Y-30399286D01*
X52806167Y-30432813D01*
X52630241Y-30550363D01*
X52430363Y-30750241D01*
X52273320Y-30985273D01*
X52165147Y-31246426D01*
X52160000Y-31272301D01*
X52160000Y-29517699D01*
X52165147Y-29543574D01*
G37*
%TD.AperFunction*%
D13*
X62340001Y-30840582D02*
X62279637Y-30750241D01*
X62079759Y-30550363D01*
X61919158Y-30443053D01*
X61914003Y-30390714D01*
X61903833Y-30357187D01*
X62079759Y-30239637D01*
X62279637Y-30039759D01*
X62340000Y-29949418D01*
X62340001Y-30840582D01*
%TA.AperFunction,NonConductor*%
D14*
G36*
X62340001Y-30840582D02*
G01*
X62279637Y-30750241D01*
X62079759Y-30550363D01*
X61919158Y-30443053D01*
X61914003Y-30390714D01*
X61903833Y-30357187D01*
X62079759Y-30239637D01*
X62279637Y-30039759D01*
X62340000Y-29949418D01*
X62340001Y-30840582D01*
G37*
%TD.AperFunction*%
D13*
X52214463Y-27739494D02*
X52293815Y-27836185D01*
X52390506Y-27915537D01*
X52500820Y-27974502D01*
X52620518Y-28010812D01*
X52628961Y-28011643D01*
X52430363Y-28210241D01*
X52273320Y-28445273D01*
X52165147Y-28706426D01*
X52160000Y-28732301D01*
X52160000Y-27637603D01*
X52214463Y-27739494D01*
%TA.AperFunction,NonConductor*%
D14*
G36*
X52214463Y-27739494D02*
G01*
X52293815Y-27836185D01*
X52390506Y-27915537D01*
X52500820Y-27974502D01*
X52620518Y-28010812D01*
X52628961Y-28011643D01*
X52430363Y-28210241D01*
X52273320Y-28445273D01*
X52165147Y-28706426D01*
X52160000Y-28732301D01*
X52160000Y-27637603D01*
X52214463Y-27739494D01*
G37*
%TD.AperFunction*%
D13*
X62340000Y-28300581D02*
X62279637Y-28210241D01*
X62079759Y-28010363D01*
X61919158Y-27903053D01*
X61914003Y-27850714D01*
X61903833Y-27817187D01*
X62079759Y-27699637D01*
X62279637Y-27499759D01*
X62340000Y-27409419D01*
X62340000Y-28300581D01*
%TA.AperFunction,NonConductor*%
D14*
G36*
X62340000Y-28300581D02*
G01*
X62279637Y-28210241D01*
X62079759Y-28010363D01*
X61919158Y-27903053D01*
X61914003Y-27850714D01*
X61903833Y-27817187D01*
X62079759Y-27699637D01*
X62279637Y-27499759D01*
X62340000Y-27409419D01*
X62340000Y-28300581D01*
G37*
%TD.AperFunction*%
D13*
X62340000Y-25760581D02*
X62279637Y-25670241D01*
X62079759Y-25470363D01*
X61844727Y-25313320D01*
X61583574Y-25205147D01*
X61306335Y-25150000D01*
X61023665Y-25150000D01*
X60843719Y-25185794D01*
X60739576Y-25100326D01*
X60607547Y-25029754D01*
X60464286Y-24986297D01*
X60352633Y-24975300D01*
X60352622Y-24975300D01*
X60315300Y-24971624D01*
X60277978Y-24975300D01*
X57321125Y-24975300D01*
X57283800Y-24971624D01*
X57246475Y-24975300D01*
X57246467Y-24975300D01*
X57134814Y-24986297D01*
X56991553Y-25029754D01*
X56859524Y-25100326D01*
X56743799Y-25195299D01*
X56720001Y-25224297D01*
X55607371Y-26336928D01*
X55310000Y-26336928D01*
X55156255Y-26352071D01*
X55008418Y-26396916D01*
X54983072Y-26410464D01*
X54983072Y-25785000D01*
X54970812Y-25660518D01*
X54934502Y-25540820D01*
X54875537Y-25430506D01*
X54796185Y-25333815D01*
X54699494Y-25254463D01*
X54589180Y-25195498D01*
X54469482Y-25159188D01*
X54345000Y-25146928D01*
X52745000Y-25146928D01*
X52620518Y-25159188D01*
X52500820Y-25195498D01*
X52390506Y-25254463D01*
X52293815Y-25333815D01*
X52214463Y-25430506D01*
X52160000Y-25532397D01*
X52160000Y-24660000D01*
X62340000Y-24660000D01*
X62340000Y-25760581D01*
%TA.AperFunction,NonConductor*%
D14*
G36*
X62340000Y-25760581D02*
G01*
X62279637Y-25670241D01*
X62079759Y-25470363D01*
X61844727Y-25313320D01*
X61583574Y-25205147D01*
X61306335Y-25150000D01*
X61023665Y-25150000D01*
X60843719Y-25185794D01*
X60739576Y-25100326D01*
X60607547Y-25029754D01*
X60464286Y-24986297D01*
X60352633Y-24975300D01*
X60352622Y-24975300D01*
X60315300Y-24971624D01*
X60277978Y-24975300D01*
X57321125Y-24975300D01*
X57283800Y-24971624D01*
X57246475Y-24975300D01*
X57246467Y-24975300D01*
X57134814Y-24986297D01*
X56991553Y-25029754D01*
X56859524Y-25100326D01*
X56743799Y-25195299D01*
X56720001Y-25224297D01*
X55607371Y-26336928D01*
X55310000Y-26336928D01*
X55156255Y-26352071D01*
X55008418Y-26396916D01*
X54983072Y-26410464D01*
X54983072Y-25785000D01*
X54970812Y-25660518D01*
X54934502Y-25540820D01*
X54875537Y-25430506D01*
X54796185Y-25333815D01*
X54699494Y-25254463D01*
X54589180Y-25195498D01*
X54469482Y-25159188D01*
X54345000Y-25146928D01*
X52745000Y-25146928D01*
X52620518Y-25159188D01*
X52500820Y-25195498D01*
X52390506Y-25254463D01*
X52293815Y-25333815D01*
X52214463Y-25430506D01*
X52160000Y-25532397D01*
X52160000Y-24660000D01*
X62340000Y-24660000D01*
X62340000Y-25760581D01*
G37*
%TD.AperFunction*%
M02*
